<svg width="84" height="84" viewBox="0 0 84 84" fill="none" xmlns="http://www.w3.org/2000/svg">
<path d="M42.0026 0.333008C19.0026 0.333008 0.335938 18.9997 0.335938 41.9997C0.335938 64.9997 19.0026 83.6664 42.0026 83.6664C65.0026 83.6664 83.6693 64.9997 83.6693 41.9997C83.6693 18.9997 65.0026 0.333008 42.0026 0.333008ZM42.0026 16.9997C50.0443 16.9997 56.5859 23.5413 56.5859 31.583C56.5859 39.6247 50.0443 46.1664 42.0026 46.1664C33.9609 46.1664 27.4193 39.6247 27.4193 31.583C27.4193 23.5413 33.9609 16.9997 42.0026 16.9997ZM42.0026 75.333C33.5443 75.333 23.5443 71.9164 16.4193 63.333C23.7176 57.6069 32.726 54.4947 42.0026 54.4947C51.2792 54.4947 60.2876 57.6069 67.586 63.333C60.4609 71.9164 50.4609 75.333 42.0026 75.333Z" fill="#D9D9D9"/>
</svg>
