<svg width="20" height="20" viewBox="0 0 20 20" fill="none" xmlns="http://www.w3.org/2000/svg">
<path d="M9.99984 18.3989C9.74984 18.3989 9.49984 18.3406 9.2915 18.2239C7.73317 17.374 4.9915 16.4739 3.27484 16.2489L3.03317 16.2156C1.9415 16.0823 1.0415 15.0573 1.0415 13.9489V3.88228C1.0415 3.22395 1.29984 2.62395 1.77484 2.19062C2.24984 1.75728 2.8665 1.54895 3.5165 1.60728C5.34984 1.74895 8.1165 2.66562 9.68317 3.64895L9.88317 3.76562C9.9415 3.79895 10.0665 3.79895 10.1165 3.77395L10.2498 3.69061C11.8165 2.70728 14.5832 1.77395 16.4248 1.61562C16.4415 1.61562 16.5082 1.61562 16.5248 1.61562C17.1332 1.55728 17.7582 1.77395 18.2248 2.20728C18.6998 2.64062 18.9582 3.24062 18.9582 3.89895V13.9573C18.9582 15.0739 18.0582 16.0906 16.9582 16.2239L16.6832 16.2573C14.9665 16.4823 12.2165 17.3906 10.6915 18.2323C10.4915 18.3489 10.2498 18.3989 9.99984 18.3989ZM3.3165 2.84895C3.04984 2.84895 2.80817 2.94062 2.6165 3.11562C2.40817 3.30728 2.2915 3.58228 2.2915 3.88228V13.9489C2.2915 14.4406 2.7165 14.9156 3.1915 14.9823L3.4415 15.0156C5.3165 15.2656 8.1915 16.2073 9.85817 17.1156C9.93317 17.1489 10.0415 17.1573 10.0832 17.1406C11.7498 16.2156 14.6415 15.2656 16.5248 15.0156L16.8082 14.9823C17.2832 14.9239 17.7082 14.4406 17.7082 13.9489V3.89062C17.7082 3.58228 17.5915 3.31562 17.3832 3.11562C17.1665 2.92395 16.8915 2.83228 16.5832 2.84895C16.5665 2.84895 16.4998 2.84895 16.4832 2.84895C14.8915 2.99062 12.3248 3.84895 10.9248 4.72395L10.7915 4.81562C10.3332 5.09895 9.68317 5.09895 9.2415 4.82395L9.0415 4.70728C7.6165 3.83228 5.04984 2.98228 3.4165 2.84895C3.38317 2.84895 3.34984 2.84895 3.3165 2.84895Z" fill="white"/>
<path d="M10 17.6992C9.65833 17.6992 9.375 17.4159 9.375 17.0742V4.57422C9.375 4.23255 9.65833 3.94922 10 3.94922C10.3417 3.94922 10.625 4.23255 10.625 4.57422V17.0742C10.625 17.4242 10.3417 17.6992 10 17.6992Z" fill="white"/>
<path d="M6.4585 7.69922H4.5835C4.24183 7.69922 3.9585 7.41589 3.9585 7.07422C3.9585 6.73255 4.24183 6.44922 4.5835 6.44922H6.4585C6.80016 6.44922 7.0835 6.73255 7.0835 7.07422C7.0835 7.41589 6.80016 7.69922 6.4585 7.69922Z" fill="white"/>
<path d="M7.0835 10.1992H4.5835C4.24183 10.1992 3.9585 9.91589 3.9585 9.57422C3.9585 9.23255 4.24183 8.94922 4.5835 8.94922H7.0835C7.42516 8.94922 7.7085 9.23255 7.7085 9.57422C7.7085 9.91589 7.42516 10.1992 7.0835 10.1992Z" fill="white"/>
</svg>
