<svg width="20" height="20" viewBox="0 0 20 20" fill="none" xmlns="http://www.w3.org/2000/svg">
<path d="M6.6665 4.79297C6.32484 4.79297 6.0415 4.50964 6.0415 4.16797V1.66797C6.0415 1.3263 6.32484 1.04297 6.6665 1.04297C7.00817 1.04297 7.2915 1.3263 7.2915 1.66797V4.16797C7.2915 4.50964 7.00817 4.79297 6.6665 4.79297Z" fill="#C1E647"/>
<path d="M13.3335 4.79297C12.9918 4.79297 12.7085 4.50964 12.7085 4.16797V1.66797C12.7085 1.3263 12.9918 1.04297 13.3335 1.04297C13.6752 1.04297 13.9585 1.3263 13.9585 1.66797V4.16797C13.9585 4.50964 13.6752 4.79297 13.3335 4.79297Z" fill="#C1E647"/>
<path d="M7.08333 12.082C6.86667 12.082 6.65 11.9904 6.49167 11.8404C6.34167 11.682 6.25 11.4737 6.25 11.2487C6.25 11.1404 6.275 11.032 6.31667 10.932C6.35833 10.832 6.41667 10.7404 6.49167 10.657C6.8 10.3487 7.35833 10.3487 7.675 10.657C7.825 10.8154 7.91667 11.032 7.91667 11.2487C7.91667 11.2987 7.90834 11.357 7.9 11.4154C7.89167 11.4654 7.875 11.5154 7.85 11.5654C7.83333 11.6154 7.80833 11.6654 7.775 11.7154C7.74167 11.757 7.70833 11.7987 7.675 11.8404C7.51667 11.9904 7.3 12.082 7.08333 12.082Z" fill="#C1E647"/>
<path d="M9.99984 12.0839C9.8915 12.0839 9.78317 12.0589 9.68317 12.0173C9.57484 11.9756 9.4915 11.9172 9.40817 11.8422C9.25817 11.6839 9.1665 11.4756 9.1665 11.2506C9.1665 11.1423 9.19151 11.0339 9.23317 10.9339C9.27484 10.8339 9.33317 10.7423 9.40817 10.6589C9.4915 10.5839 9.57484 10.5256 9.68317 10.4839C9.99151 10.3589 10.3582 10.4256 10.5915 10.6589C10.7415 10.8173 10.8332 11.0339 10.8332 11.2506C10.8332 11.3006 10.8248 11.3589 10.8165 11.4173C10.8082 11.4673 10.7915 11.5173 10.7665 11.5673C10.7498 11.6173 10.7248 11.6672 10.6915 11.7172C10.6665 11.7589 10.6248 11.8006 10.5915 11.8422C10.4332 11.9922 10.2165 12.0839 9.99984 12.0839Z" fill="#C1E647"/>
<path d="M7.08333 15.0016C6.975 15.0016 6.86667 14.9766 6.76667 14.935C6.65834 14.8933 6.56667 14.8349 6.49167 14.7599C6.41667 14.6849 6.35833 14.5933 6.31667 14.4849C6.275 14.3849 6.25 14.2766 6.25 14.1683C6.25 14.0599 6.275 13.9516 6.31667 13.8516C6.35833 13.7433 6.41667 13.6516 6.49167 13.5766C6.56667 13.5016 6.65834 13.4433 6.76667 13.4016C6.96667 13.3183 7.2 13.3099 7.4 13.4016C7.50833 13.4433 7.6 13.5016 7.675 13.5766C7.75 13.6516 7.80833 13.7433 7.85 13.8516C7.89167 13.9516 7.91667 14.0599 7.91667 14.1683C7.91667 14.2766 7.89167 14.3849 7.85 14.4849C7.80833 14.5933 7.75 14.6849 7.675 14.7599C7.6 14.8349 7.50833 14.8933 7.4 14.935C7.3 14.9766 7.19167 15.0016 7.08333 15.0016Z" fill="#C1E647"/>
<path d="M17.0832 8.19922H2.9165C2.57484 8.19922 2.2915 7.91589 2.2915 7.57422C2.2915 7.23255 2.57484 6.94922 2.9165 6.94922H17.0832C17.4248 6.94922 17.7082 7.23255 17.7082 7.57422C17.7082 7.91589 17.4248 8.19922 17.0832 8.19922Z" fill="#C1E647"/>
<path d="M14.9998 19.7917C14.0248 19.7917 13.0998 19.4417 12.3915 18.8C12.0915 18.55 11.8248 18.2333 11.6082 17.8667C11.2415 17.2667 11.0415 16.5583 11.0415 15.8333C11.0415 13.65 12.8165 11.875 14.9998 11.875C16.1332 11.875 17.2165 12.3667 17.9665 13.2167C18.6082 13.95 18.9582 14.875 18.9582 15.8333C18.9582 16.5583 18.7582 17.2667 18.3832 17.875C17.6832 19.0583 16.3832 19.7917 14.9998 19.7917ZM14.9998 13.125C13.5082 13.125 12.2915 14.3417 12.2915 15.8333C12.2915 16.325 12.4248 16.8083 12.6832 17.225C12.8248 17.475 13.0082 17.6833 13.2082 17.8583C13.7082 18.3083 14.3332 18.5417 14.9998 18.5417C15.9582 18.5417 16.8248 18.05 17.3165 17.2333C17.5748 16.8083 17.7082 16.3333 17.7082 15.8333C17.7082 15.1833 17.4665 14.55 17.0332 14.0417C16.5165 13.4583 15.7748 13.125 14.9998 13.125Z" fill="#C1E647"/>
<path d="M14.5251 17.2846C14.3667 17.2846 14.2084 17.2263 14.0834 17.1013L13.2584 16.2763C13.0167 16.0346 13.0167 15.6346 13.2584 15.3929C13.5001 15.1513 13.9001 15.1513 14.1417 15.3929L14.5417 15.7929L15.8751 14.5596C16.1251 14.3263 16.5251 14.3429 16.7584 14.5929C16.9917 14.8429 16.9751 15.2429 16.7251 15.4763L14.9501 17.1179C14.8251 17.2263 14.6751 17.2846 14.5251 17.2846Z" fill="#C1E647"/>
<path d="M12.8083 18.9596H6.66667C3.625 18.9596 1.875 17.2096 1.875 14.168V7.08464C1.875 4.04297 3.625 2.29297 6.66667 2.29297H13.3333C16.375 2.29297 18.125 4.04297 18.125 7.08464V13.6346C18.125 13.893 17.9667 14.1263 17.7167 14.218C17.475 14.3096 17.2 14.243 17.025 14.043C16.5083 13.4596 15.7667 13.1263 14.9917 13.1263C13.5 13.1263 12.2833 14.343 12.2833 15.8346C12.2833 16.3263 12.4167 16.8096 12.675 17.2263C12.8167 17.4763 13 17.6846 13.2 17.8596C13.4 18.0263 13.475 18.3013 13.3833 18.5513C13.3083 18.793 13.075 18.9596 12.8083 18.9596ZM6.66667 3.54297C4.28333 3.54297 3.125 4.7013 3.125 7.08464V14.168C3.125 16.5513 4.28333 17.7096 6.66667 17.7096H11.5167C11.2083 17.143 11.0417 16.5013 11.0417 15.8346C11.0417 13.6513 12.8167 11.8763 15 11.8763C15.6583 11.8763 16.3083 12.043 16.875 12.3513V7.08464C16.875 4.7013 15.7167 3.54297 13.3333 3.54297H6.66667Z" fill="#C1E647"/>
</svg>
