<svg width="24" height="25" viewBox="0 0 24 25" fill="none" xmlns="http://www.w3.org/2000/svg">
<path d="M14.9 23.25H9.10001C8.21001 23.25 7.07 22.78 6.45 22.15L2.35001 18.05C1.72001 17.42 1.25 16.28 1.25 15.4V9.60001C1.25 8.71001 1.72001 7.57001 2.35001 6.95001L6.45 2.85001C7.08 2.22001 8.22001 1.75 9.10001 1.75H14.9C15.79 1.75 16.93 2.22001 17.55 2.85001L21.65 6.95001C22.28 7.58001 22.75 8.72001 22.75 9.60001V15.4C22.75 16.29 22.28 17.43 21.65 18.05L17.55 22.15C16.92 22.78 15.79 23.25 14.9 23.25ZM9.10001 3.25C8.61001 3.25 7.84999 3.56 7.50999 3.91L3.41 8.01001C3.07 8.36001 2.75 9.11001 2.75 9.60001V15.4C2.75 15.89 3.06 16.65 3.41 16.99L7.50999 21.09C7.85999 21.43 8.61001 21.75 9.10001 21.75H14.9C15.39 21.75 16.15 21.44 16.49 21.09L20.59 16.99C20.93 16.64 21.25 15.89 21.25 15.4V9.60001C21.25 9.11001 20.94 8.35001 20.59 8.01001L16.49 3.91C16.14 3.57 15.39 3.25 14.9 3.25H9.10001Z" fill="#E6475E"/>
<path d="M4.93988 20.3289C4.74988 20.3289 4.55988 20.2589 4.40988 20.1089C4.11988 19.8189 4.11988 19.3389 4.40988 19.0489L18.5499 4.90891C18.8399 4.61891 19.3199 4.61891 19.6099 4.90891C19.8999 5.19891 19.8999 5.6789 19.6099 5.9689L5.46988 20.1089C5.31988 20.2589 5.12988 20.3289 4.93988 20.3289Z" fill="#E6475E"/>
</svg>
