<svg width="15" height="14" viewBox="0 0 15 14" fill="none" xmlns="http://www.w3.org/2000/svg">
<path d="M10.2417 11.072H4.75834C4.51334 11.072 4.23917 10.8795 4.1575 10.6461L1.7425 3.89112C1.39834 2.92279 1.80084 2.62529 2.62917 3.22029L4.90417 4.84779C5.28334 5.11029 5.715 4.97612 5.87834 4.55029L6.905 1.81445C7.23167 0.939453 7.77417 0.939453 8.10084 1.81445L9.1275 4.55029C9.29084 4.97612 9.7225 5.11029 10.0958 4.84779L12.2308 3.32529C13.1408 2.67195 13.5783 3.00445 13.205 4.06029L10.8483 10.6578C10.7608 10.8795 10.4867 11.072 10.2417 11.072Z" stroke="#DF8E14" stroke-linecap="round" stroke-linejoin="round"/>
<path d="M4.29167 12.833H10.7083" stroke="#DF8E14" stroke-linecap="round" stroke-linejoin="round"/>
<path d="M6.04167 8.16699H8.95833" stroke="#DF8E14" stroke-linecap="round" stroke-linejoin="round"/>
</svg>
