<svg width="24" height="25" viewBox="0 0 24 25" fill="none" xmlns="http://www.w3.org/2000/svg">
<path d="M15 23.25H9C3.57 23.25 1.25 20.93 1.25 15.5V9.5C1.25 4.07 3.57 1.75 9 1.75H14C14.41 1.75 14.75 2.09 14.75 2.5C14.75 2.91 14.41 3.25 14 3.25H9C4.39 3.25 2.75 4.89 2.75 9.5V15.5C2.75 20.11 4.39 21.75 9 21.75H15C19.61 21.75 21.25 20.11 21.25 15.5V10.5C21.25 10.09 21.59 9.75 22 9.75C22.41 9.75 22.75 10.09 22.75 10.5V15.5C22.75 20.93 20.43 23.25 15 23.25Z" fill="#C1E647"/>
<path d="M22 11.2485H18C14.58 11.2485 13.25 9.91852 13.25 6.49852V2.49852C13.25 2.19852 13.43 1.91852 13.71 1.80852C13.99 1.68852 14.31 1.75852 14.53 1.96852L22.53 9.96852C22.74 10.1785 22.81 10.5085 22.69 10.7885C22.57 11.0685 22.3 11.2485 22 11.2485ZM14.75 4.30852V6.49852C14.75 9.07852 15.42 9.74852 18 9.74852H20.19L14.75 4.30852Z" fill="#C1E647"/>
<path d="M13 14.25H7C6.59 14.25 6.25 13.91 6.25 13.5C6.25 13.09 6.59 12.75 7 12.75H13C13.41 12.75 13.75 13.09 13.75 13.5C13.75 13.91 13.41 14.25 13 14.25Z" fill="#C1E647"/>
<path d="M11 18.25H7C6.59 18.25 6.25 17.91 6.25 17.5C6.25 17.09 6.59 16.75 7 16.75H11C11.41 16.75 11.75 17.09 11.75 17.5C11.75 17.91 11.41 18.25 11 18.25Z" fill="#C1E647"/>
</svg>
