<svg width="21" height="20" viewBox="0 0 21 20" fill="none" xmlns="http://www.w3.org/2000/svg">
<path d="M8.82483 18.9833C8.32483 18.9833 7.84983 18.7333 7.52483 18.2917L6.52485 16.9583C6.52485 16.9667 6.48317 16.9417 6.46651 16.9417H6.15818C3.30818 16.9417 1.5415 16.1667 1.5415 12.325V8.99167C1.5415 5.48334 3.68318 4.56667 5.48318 4.40834C5.68318 4.38334 5.91651 4.375 6.15818 4.375H11.4915C14.5082 4.375 16.1082 5.97501 16.1082 8.99167V12.325C16.1082 12.5667 16.0998 12.8 16.0665 13.025C15.9165 14.8 14.9998 16.9417 11.4915 16.9417H11.1582L10.1248 18.2917C9.79983 18.7333 9.32483 18.9833 8.82483 18.9833ZM6.15818 5.625C5.96651 5.625 5.78317 5.63333 5.60817 5.65C3.67484 5.81667 2.7915 6.87501 2.7915 8.99167V12.325C2.7915 15.1833 3.67484 15.6917 6.15818 15.6917H6.49151C6.86651 15.6917 7.2915 15.9 7.52483 16.2L8.52484 17.5417C8.70817 17.7917 8.94151 17.7917 9.12484 17.5417L10.1248 16.2083C10.3665 15.8833 10.7498 15.6917 11.1582 15.6917H11.4915C13.6082 15.6917 14.6665 14.8 14.8248 12.9C14.8498 12.7 14.8582 12.5167 14.8582 12.325V8.99167C14.8582 6.66667 13.8165 5.625 11.4915 5.625H6.15818Z" fill="white"/>
<path d="M8.82503 11.8268C8.35837 11.8268 7.9917 11.4518 7.9917 10.9935C7.9917 10.5352 8.3667 10.1602 8.82503 10.1602C9.28337 10.1602 9.65837 10.5352 9.65837 10.9935C9.65837 11.4518 9.2917 11.8268 8.82503 11.8268Z" fill="white"/>
<path d="M11.4915 11.8268C11.0249 11.8268 10.6582 11.4518 10.6582 10.9935C10.6582 10.5352 11.0332 10.1602 11.4915 10.1602C11.9499 10.1602 12.3249 10.5352 12.3249 10.9935C12.3249 11.4518 11.9499 11.8268 11.4915 11.8268Z" fill="white"/>
<path d="M6.16634 11.8268C5.69967 11.8268 5.33301 11.4518 5.33301 10.9935C5.33301 10.5352 5.70801 10.1602 6.16634 10.1602C6.62467 10.1602 6.99967 10.5352 6.99967 10.9935C6.99967 11.4518 6.62467 11.8268 6.16634 11.8268Z" fill="white"/>
<path d="M15.4502 13.5763C15.2835 13.5763 15.1169 13.5096 15.0002 13.3846C14.8669 13.2513 14.8085 13.0596 14.8335 12.8763C14.8585 12.7013 14.8669 12.518 14.8669 12.3263V8.99298C14.8669 6.66798 13.8252 5.6263 11.5002 5.6263H6.16685C5.97518 5.6263 5.79187 5.63463 5.61687 5.6513C5.43354 5.6763 5.24186 5.60962 5.10852 5.48462C4.97519 5.35129 4.90018 5.16798 4.91685 4.98464C5.06685 3.18464 5.99185 1.04297 9.50018 1.04297H14.8335C17.8502 1.04297 19.4502 2.64298 19.4502 5.65964V8.99298C19.4502 12.5013 17.3085 13.418 15.5085 13.5763C15.4835 13.5763 15.4669 13.5763 15.4502 13.5763ZM6.26687 4.3763H11.4919C14.5085 4.3763 16.1085 5.97631 16.1085 8.99298V12.218C17.5252 11.868 18.1919 10.8263 18.1919 8.99298V5.65964C18.1919 3.33464 17.1502 2.29297 14.8252 2.29297H9.49187C7.65853 2.29297 6.6252 2.95964 6.26687 4.3763Z" fill="white"/>
</svg>
