<svg width="30" height="30" viewBox="0 0 30 30" fill="none" xmlns="http://www.w3.org/2000/svg">
<path d="M15.0435 24.7383C12.3864 24.7383 10.1035 23.7859 8.1949 21.8813C6.28625 19.9766 5.33193 17.6998 5.33193 15.0507V13.1998L2.66365 15.8801L1.7334 14.9498L6.04105 10.6301L10.3607 14.9498L9.43046 15.8801L6.75018 13.1998V15.0507C6.75018 17.328 7.56108 19.2755 9.18287 20.8933C10.8047 22.5111 12.7582 23.32 15.0435 23.32C15.6075 23.32 16.1564 23.2699 16.6901 23.1698C17.2237 23.0696 17.7261 22.9234 18.1973 22.7311L19.2165 23.7503C18.5386 24.0948 17.8535 24.3456 17.1612 24.5027C16.4689 24.6597 15.763 24.7383 15.0435 24.7383ZM23.9785 19.4089L19.6589 15.0892L20.6204 14.1397L23.2694 16.8008V15.0507C23.2694 12.7735 22.4585 10.826 20.8367 9.20822C19.2149 7.59043 17.2654 6.78153 14.9881 6.78153C14.416 6.78153 13.8652 6.83281 13.3355 6.93538C12.8059 7.03794 12.3015 7.17255 11.8223 7.33922L10.8151 6.32C11.485 5.97546 12.1681 5.72986 12.8644 5.58322C13.5607 5.43659 14.2686 5.36328 14.9881 5.36328C17.6452 5.36328 19.9261 6.3136 21.8307 8.21425C23.7353 10.1149 24.6876 12.3937 24.6876 15.0507V16.8392L27.368 14.171L28.2982 15.0892L23.9785 19.4089Z" fill="white"/>
</svg>
