<svg width="24" height="25" viewBox="0 0 24 25" fill="none" xmlns="http://www.w3.org/2000/svg">
<path d="M9.98959 23.2506C9.78959 23.2506 9.62959 23.2106 9.50959 23.1606C9.10959 23.0106 8.42959 22.5206 8.42959 20.9706V14.5206H6.08959C4.74959 14.5206 4.26959 13.8906 4.09959 13.5206C3.92959 13.1406 3.77959 12.3706 4.65959 11.3606L12.2296 2.76062C13.2496 1.60062 14.0796 1.68062 14.4796 1.83062C14.8796 1.98062 15.5596 2.47062 15.5596 4.02062V10.4706H17.8996C19.2396 10.4706 19.7196 11.1006 19.8896 11.4706C20.0596 11.8506 20.2096 12.6206 19.3296 13.6306L11.7596 22.2306C11.0496 23.0406 10.4296 23.2506 9.98959 23.2506ZM13.9296 3.24062C13.8996 3.28062 13.6896 3.38062 13.3596 3.76062L5.78959 12.3606C5.50959 12.6806 5.46959 12.8806 5.46959 12.9206C5.48959 12.9306 5.66959 13.0306 6.08959 13.0306H9.17959C9.58959 13.0306 9.92959 13.3706 9.92959 13.7806V20.9806C9.92959 21.4806 10.0196 21.7006 10.0596 21.7606C10.0896 21.7206 10.2996 21.6206 10.6296 21.2406L18.1996 12.6406C18.4796 12.3206 18.5196 12.1206 18.5196 12.0806C18.4996 12.0706 18.3196 11.9706 17.8996 11.9706H14.8096C14.3996 11.9706 14.0596 11.6306 14.0596 11.2206V4.02062C14.0696 3.52062 13.9696 3.31062 13.9296 3.24062Z" fill="#47E6DC"/>
</svg>
