<svg width="31" height="30" viewBox="0 0 31 30" fill="none" xmlns="http://www.w3.org/2000/svg">
<g clip-path="url(#clip0_7109_16700)">
<path d="M15.9688 12.6689V10.7812H15.0312V12.6689C7.48719 12.9375 0.96875 19.6036 0.96875 27.1875C0.96875 27.3118 1.01814 27.431 1.10604 27.519C1.19395 27.6069 1.31318 27.6562 1.4375 27.6562H29.5625C29.6868 27.6562 29.806 27.6069 29.894 27.519C29.9819 27.431 30.0312 27.3118 30.0312 27.1875C30.0312 19.6036 23.5128 12.9375 15.9688 12.6689ZM1.91516 26.7188C2.18187 19.6744 8.41531 13.5938 15.5 13.5938C22.5847 13.5938 28.8181 19.6744 29.0848 26.7188H1.91516Z" fill="white"/>
<path d="M23.7838 19.0781C24.0673 19.3669 24.3378 19.6716 24.5886 19.9819L25.318 19.3931C25.0489 19.0594 24.7555 18.7327 24.4536 18.4219L23.7838 19.0781ZM15.5 15.4688C18.1722 15.5002 20.7511 16.4562 22.798 18.1744L23.3938 17.4506C21.179 15.5944 18.3896 14.5628 15.5 14.5312V15.4688Z" fill="white"/>
<path d="M29.5625 28.5938H1.4375V29.5312H29.5625V28.5938Z" fill="white"/>
<path d="M15.2042 5.28562C15.4285 5.46998 15.612 5.69894 15.7431 5.95796C15.8741 6.21699 15.95 6.50044 15.9657 6.79032C15.9814 7.0802 15.9367 7.37019 15.8345 7.64188C15.7322 7.91358 15.5745 8.16105 15.3716 8.3686L15.1658 8.57766L15.8342 9.23391L16.0395 9.02485C16.3342 8.72428 16.563 8.36567 16.7114 7.97184C16.8599 7.578 16.9247 7.15758 16.9017 6.73732C16.8788 6.31707 16.7686 5.90619 16.5782 5.53085C16.3878 5.1555 16.1214 4.82391 15.7958 4.55719C15.5715 4.37283 15.388 4.14388 15.2569 3.88485C15.1259 3.62582 15.05 3.34238 15.0343 3.05249C15.0186 2.76261 15.0633 2.47263 15.1655 2.20093C15.2678 1.92924 15.4255 1.68176 15.6284 1.47422L15.8342 1.26516L15.1658 0.609375L14.9605 0.818438C14.6658 1.119 14.437 1.47761 14.2886 1.87144C14.1401 2.26528 14.0753 2.6857 14.0983 3.10596C14.1212 3.52621 14.2314 3.93709 14.4218 4.31243C14.6122 4.68778 14.8786 5.01937 15.2042 5.28609V5.28562ZM20.3605 5.28562C20.5847 5.46998 20.7682 5.69894 20.8993 5.95796C21.0304 6.21699 21.1062 6.50044 21.1219 6.79032C21.1377 7.0802 21.093 7.37019 20.9907 7.64188C20.8884 7.91358 20.7308 8.16105 20.5278 8.3686L20.322 8.57766L20.9905 9.23391L21.1958 9.02485C21.4904 8.72428 21.7192 8.36567 21.8677 7.97184C22.0161 7.578 22.0809 7.15758 22.058 6.73732C22.0351 6.31707 21.9249 5.90619 21.7345 5.53085C21.5441 5.1555 21.2776 4.82391 20.952 4.55719C20.7278 4.37283 20.5443 4.14388 20.4132 3.88485C20.2821 3.62582 20.2063 3.34238 20.1906 3.05249C20.1748 2.76261 20.2195 2.47263 20.3218 2.20093C20.4241 1.92924 20.5817 1.68176 20.7847 1.47422L20.9905 1.26516L20.322 0.609375L20.1167 0.818438C19.8221 1.119 19.5933 1.47761 19.4448 1.87144C19.2964 2.26528 19.2316 2.6857 19.2545 3.10596C19.2774 3.52621 19.3876 3.93709 19.578 4.31243C19.7684 4.68778 20.0349 5.01937 20.3605 5.28609V5.28562ZM10.048 5.28562C10.2722 5.46998 10.4557 5.69894 10.5868 5.95796C10.7179 6.21699 10.7937 6.50044 10.8094 6.79032C10.8252 7.0802 10.7805 7.37019 10.6782 7.64188C10.5759 7.91358 10.4183 8.16105 10.2153 8.3686L10.0095 8.57766L10.678 9.23391L10.8833 9.02485C11.1779 8.72428 11.4067 8.36567 11.5552 7.97184C11.7036 7.578 11.7684 7.15758 11.7455 6.73732C11.7226 6.31707 11.6124 5.90619 11.422 5.53085C11.2316 5.1555 10.9651 4.82391 10.6395 4.55719C10.4153 4.37283 10.2318 4.14388 10.1007 3.88485C9.96961 3.62582 9.8938 3.34238 9.87806 3.05249C9.86233 2.76261 9.90702 2.47263 10.0093 2.20093C10.1116 1.92924 10.2692 1.68176 10.4722 1.47422L10.678 1.26516L10.0095 0.609375L9.80422 0.818438C9.5096 1.119 9.28078 1.47761 9.13234 1.87144C8.9839 2.26528 8.91907 2.6857 8.942 3.10596C8.96493 3.52621 9.07511 3.93709 9.26552 4.31243C9.45593 4.68778 9.7224 5.01937 10.048 5.28609V5.28562Z" fill="white"/>
</g>
<defs>
<clipPath id="clip0_7109_16700">
<rect width="30" height="30" fill="white" transform="translate(0.5)"/>
</clipPath>
</defs>
</svg>
