<svg width="25" height="24" viewBox="0 0 25 24" fill="none" xmlns="http://www.w3.org/2000/svg">
<path d="M12.5 12.75C9.33 12.75 6.75 10.17 6.75 7C6.75 3.83 9.33 1.25 12.5 1.25C15.67 1.25 18.25 3.83 18.25 7C18.25 10.17 15.67 12.75 12.5 12.75ZM12.5 2.75C10.16 2.75 8.25 4.66 8.25 7C8.25 9.34 10.16 11.25 12.5 11.25C14.84 11.25 16.75 9.34 16.75 7C16.75 4.66 14.84 2.75 12.5 2.75Z" fill="#2B2B2B"/>
<path d="M3.90625 22.75C3.49625 22.75 3.15625 22.41 3.15625 22C3.15625 17.73 7.34625 14.25 12.4962 14.25C13.5062 14.25 14.4962 14.38 15.4562 14.65C15.8562 14.76 16.0863 15.17 15.9763 15.57C15.8663 15.97 15.4562 16.2 15.0562 16.09C14.2362 15.86 13.3762 15.75 12.4962 15.75C8.17625 15.75 4.65625 18.55 4.65625 22C4.65625 22.41 4.31625 22.75 3.90625 22.75Z" fill="#2B2B2B"/>
<path d="M18.5 22.75C17.32 22.75 16.2 22.31 15.33 21.52C14.98 21.22 14.67 20.85 14.43 20.44C13.99 19.72 13.75 18.87 13.75 18C13.75 16.75 14.23 15.58 15.09 14.69C15.99 13.76 17.2 13.25 18.5 13.25C19.86 13.25 21.15 13.83 22.03 14.83C22.81 15.7 23.25 16.82 23.25 18C23.25 18.38 23.2 18.76 23.1 19.12C23 19.57 22.81 20.04 22.55 20.45C21.72 21.87 20.16 22.75 18.5 22.75ZM18.5 14.75C17.61 14.75 16.79 15.1 16.17 15.73C15.58 16.34 15.25 17.14 15.25 18C15.25 18.59 15.41 19.17 15.72 19.67C15.88 19.95 16.09 20.2 16.33 20.41C16.93 20.96 17.7 21.26 18.5 21.26C19.63 21.26 20.7 20.66 21.28 19.69C21.45 19.41 21.58 19.09 21.65 18.78C21.72 18.52 21.75 18.27 21.75 18.01C21.75 17.21 21.45 16.44 20.91 15.84C20.31 15.14 19.43 14.75 18.5 14.75Z" fill="#2B2B2B"/>
<path d="M19.9978 18.73H17.0078C16.5978 18.73 16.2578 18.39 16.2578 17.98C16.2578 17.57 16.5978 17.23 17.0078 17.23H19.9978C20.4078 17.23 20.7478 17.57 20.7478 17.98C20.7478 18.39 20.4078 18.73 19.9978 18.73Z" fill="#2B2B2B"/>
<path d="M18.5 20.26C18.09 20.26 17.75 19.92 17.75 19.51V16.52C17.75 16.11 18.09 15.77 18.5 15.77C18.91 15.77 19.25 16.11 19.25 16.52V19.51C19.25 19.93 18.91 20.26 18.5 20.26Z" fill="#2B2B2B"/>
</svg>
