<svg width="16" height="18" viewBox="0 0 16 18" fill="none" xmlns="http://www.w3.org/2000/svg">
<path d="M4.56264 13.5833C3.65346 13.5833 2.95182 13.2382 2.4577 12.548C1.96358 11.8579 1.72773 11.0411 1.75016 10.0977V10.0256L1.31106 9.35092C1.09418 9.0133 0.835371 8.43852 0.534621 7.62656C0.233871 6.81459 0.0834961 5.88351 0.0834961 4.83331C0.0834961 3.52028 0.398934 2.42815 1.02981 1.5569C1.66068 0.685632 2.45635 0.25 3.41681 0.25C4.43175 0.25 5.24104 0.718215 5.84466 1.65465C6.4483 2.59106 6.75012 3.65062 6.75012 4.83331C6.75012 5.60147 6.63767 6.33517 6.41277 7.03444C6.18788 7.73369 5.98141 8.305 5.79337 8.74837L6.06423 9.1955C6.20204 9.42735 6.35082 9.73237 6.51054 10.1106C6.67026 10.4888 6.75012 10.8616 6.75012 11.2291C6.75012 11.9033 6.54366 12.4642 6.13073 12.9118C5.71781 13.3595 5.19511 13.5833 4.56264 13.5833ZM2.30304 9.1314L4.86231 8.5625C5.0621 8.05608 5.2691 7.45138 5.48331 6.7484C5.69752 6.0454 5.80462 5.40703 5.80462 4.83331C5.80462 3.89741 5.58854 3.05713 5.15639 2.31248C4.72423 1.56783 4.14436 1.1955 3.41681 1.1955C2.73732 1.1955 2.16948 1.53898 1.71329 2.22594C1.25709 2.91291 1.029 3.78203 1.029 4.83331C1.029 5.82048 1.18204 6.70429 1.48812 7.48475C1.79422 8.26519 2.06586 8.81408 2.30304 9.1314ZM4.56264 12.6378C4.91948 12.6378 5.21568 12.5048 5.45127 12.2387C5.68684 11.9727 5.80462 11.6362 5.80462 11.2291C5.80462 10.962 5.73945 10.6725 5.6091 10.3606C5.47877 10.0486 5.31851 9.74784 5.12833 9.45831L2.69566 9.99677C2.68712 10.6688 2.83643 11.277 3.14358 11.8213C3.45073 12.3656 3.92375 12.6378 4.56264 12.6378ZM11.4376 17.75C10.8052 17.75 10.2825 17.5261 9.86956 17.0785C9.45663 16.6308 9.25016 16.07 9.25016 15.3958C9.25016 15.0283 9.33002 14.6554 9.48975 14.2772C9.64947 13.899 9.79824 13.594 9.93606 13.3622L10.2069 12.915C10.0242 12.477 9.81909 11.907 9.59152 11.2051C9.36395 10.5032 9.25016 9.76813 9.25016 8.99998C9.25016 7.81728 9.55198 6.75773 10.1556 5.82131C10.7592 4.88488 11.5685 4.41667 12.5835 4.41667C13.5439 4.41667 14.3396 4.8523 14.9705 5.72356C15.6014 6.59481 15.9168 7.68695 15.9168 8.99998C15.9168 10.0502 15.7677 10.9764 15.4697 11.7788C15.1716 12.5811 14.9114 13.1565 14.6892 13.5048L14.2501 14.1923V14.2724C14.264 15.1998 14.0247 16.0112 13.5322 16.7067C13.0396 17.4022 12.3415 17.75 11.4376 17.75ZM13.6732 13.3333C13.9724 12.8739 14.2635 12.2882 14.5466 11.5761C14.8297 10.864 14.9713 10.0053 14.9713 8.99998C14.9713 7.9487 14.7432 7.07958 14.287 6.3926C13.8308 5.70565 13.263 5.36217 12.5835 5.36217C11.8559 5.36217 11.2761 5.73449 10.8439 6.47915C10.4117 7.2238 10.1957 8.06408 10.1957 8.99998C10.1957 9.58224 10.3062 10.2227 10.5274 10.9215C10.7485 11.6202 10.959 12.2228 11.1588 12.7292L13.6732 13.3333ZM11.4376 16.8045C12.0658 16.8045 12.5341 16.5315 12.8423 15.9855C13.1505 15.4396 13.3046 14.8467 13.3046 14.2067L10.888 13.617C10.7384 13.8691 10.5856 14.1538 10.4296 14.4711C10.2737 14.7884 10.1957 15.0967 10.1957 15.3958C10.1957 15.8029 10.3148 16.1394 10.553 16.4054C10.7913 16.6714 11.0862 16.8045 11.4376 16.8045Z" fill="white"/>
</svg>
