<svg width="45" height="45" viewBox="0 0 45 45" fill="none" xmlns="http://www.w3.org/2000/svg">
<rect width="45" height="45" rx="22.5" fill="#BC172F"/>
<path d="M21.7437 24.5734C19.9062 24.5734 18.4062 23.0734 18.4062 21.2359C18.4062 19.3984 19.9062 17.8984 21.7437 17.8984C23.5812 17.8984 25.0812 19.3984 25.0812 21.2359C25.0812 23.0734 23.5812 24.5734 21.7437 24.5734ZM21.7437 19.3141C20.6844 19.3141 19.8125 20.1766 19.8125 21.2453C19.8125 22.3141 20.675 23.1766 21.7437 23.1766C22.8125 23.1766 23.675 22.3141 23.675 21.2453C23.675 20.1766 22.8125 19.3141 21.7437 19.3141Z" fill="white"/>
<path d="M26.6063 30.6414C26.2219 30.6414 25.9031 30.3227 25.9031 29.9383C25.9031 28.1383 24.0375 26.6758 21.7406 26.6758C19.4437 26.6758 17.5781 28.1383 17.5781 29.9383C17.5781 30.3227 17.2594 30.6414 16.875 30.6414C16.4906 30.6414 16.1719 30.3227 16.1719 29.9383C16.1719 27.3696 18.6656 25.2695 21.7406 25.2695C24.8156 25.2695 27.3094 27.3602 27.3094 29.9383C27.3094 30.3227 26.9906 30.6414 26.6063 30.6414Z" fill="white"/>
<path d="M21.7812 32.3281C16.4844 32.3281 12.1719 28.0156 12.1719 22.7188C12.1719 17.4219 16.4844 13.1094 21.7812 13.1094C23.0844 13.1094 24.3406 13.3625 25.5219 13.8594C25.8594 14 26.0281 14.375 25.9156 14.7218C25.8125 15.0312 25.7656 15.3594 25.7656 15.6875C25.7656 16.2406 25.9156 16.7844 26.2063 17.2531C26.3563 17.5156 26.5531 17.75 26.7781 17.9468C27.5938 18.6875 28.8031 18.9219 29.75 18.5844C30.0969 18.4532 30.4906 18.6313 30.6313 18.9781C31.1375 20.1688 31.3906 21.4344 31.3906 22.7281C31.3906 28.0156 27.0781 32.3281 21.7812 32.3281ZM21.7812 14.5156C17.2625 14.5156 13.5781 18.1906 13.5781 22.7188C13.5781 27.2469 17.2625 30.9219 21.7812 30.9219C26.3 30.9219 29.9844 27.2469 29.9844 22.7188C29.9844 21.8188 29.8344 20.9281 29.5531 20.075C28.2594 20.3 26.8438 19.8969 25.85 18.9875C25.5219 18.7063 25.2312 18.3594 25.0062 17.975C24.5937 17.3 24.3687 16.5031 24.3687 15.6875C24.3687 15.4344 24.3875 15.1906 24.4344 14.9469C23.5813 14.6563 22.6906 14.5156 21.7812 14.5156Z" fill="white"/>
<path d="M28.8125 20.1406C27.7062 20.1406 26.6563 19.7281 25.8406 18.9875C25.5125 18.7063 25.2219 18.3594 24.9969 17.975C24.5844 17.3 24.3594 16.5031 24.3594 15.6875C24.3594 15.2094 24.4344 14.7406 24.5844 14.2906C24.7906 13.6531 25.1469 13.0625 25.625 12.5844C26.4687 11.7219 27.6031 11.2344 28.8219 11.2344C30.0969 11.2344 31.3063 11.7781 32.1313 12.7156C32.8625 13.5313 33.275 14.5812 33.275 15.6875C33.275 16.0437 33.2281 16.4 33.1344 16.7375C33.0406 17.1594 32.8625 17.6 32.6187 17.9844C32.075 18.9031 31.2125 19.5875 30.2 19.9062C29.7781 20.0656 29.3094 20.1406 28.8125 20.1406ZM28.8125 12.6406C27.9781 12.6406 27.2 12.9687 26.6281 13.5594C26.3 13.8969 26.0656 14.2812 25.925 14.7218C25.8219 15.0312 25.775 15.3594 25.775 15.6875C25.775 16.2406 25.925 16.7844 26.2156 17.2531C26.3656 17.5156 26.5625 17.75 26.7875 17.9468C27.6031 18.6875 28.8125 18.9219 29.7594 18.5844C30.4719 18.3594 31.0531 17.8906 31.4281 17.2625C31.5969 16.9906 31.7094 16.7 31.775 16.4094C31.8406 16.1656 31.8688 15.9313 31.8688 15.6875C31.8688 14.9375 31.5875 14.2156 31.0812 13.6531C30.5094 13.0063 29.6844 12.6406 28.8125 12.6406Z" fill="white"/>
<path d="M30.2094 16.3711H27.4063C27.0219 16.3711 26.7031 16.0523 26.7031 15.668C26.7031 15.2836 27.0219 14.9648 27.4063 14.9648H30.2094C30.5937 14.9648 30.9125 15.2836 30.9125 15.668C30.9125 16.0523 30.6031 16.3711 30.2094 16.3711Z" fill="white"/>
<path d="M28.8125 17.807C28.4281 17.807 28.1094 17.4883 28.1094 17.1039V14.3008C28.1094 13.9164 28.4281 13.5977 28.8125 13.5977C29.1969 13.5977 29.5156 13.9164 29.5156 14.3008V17.1039C29.5156 17.4976 29.1969 17.807 28.8125 17.807Z" fill="white"/>
</svg>
