<svg width="45" height="45" viewBox="0 0 45 45" fill="none" xmlns="http://www.w3.org/2000/svg">
<rect width="45" height="45" rx="22.5" fill="#BC172F"/>
<path d="M27.6781 32.3178H16.8219C14.2531 32.3178 12.1719 30.2272 12.1719 27.6585V20.7116C12.1719 19.4366 12.9594 17.8335 13.9719 17.046L19.025 13.1085C20.5438 11.9272 22.9719 11.871 24.5469 12.9772L30.3406 17.0366C31.4562 17.8147 32.3281 19.4835 32.3281 20.8428V27.6678C32.3281 30.2272 30.2469 32.3178 27.6781 32.3178ZM19.8875 14.2147L14.8344 18.1522C14.1688 18.6772 13.5781 19.8678 13.5781 20.7116V27.6585C13.5781 29.4491 15.0312 30.9116 16.8219 30.9116H27.6781C29.4688 30.9116 30.9219 29.4585 30.9219 27.6678V20.8428C30.9219 19.9428 30.275 18.696 29.5344 18.1897L23.7406 14.1303C22.6719 13.3803 20.9094 13.4178 19.8875 14.2147Z" fill="white"/>
<path d="M23.6562 28.5781H20.8438C18.9031 28.5781 17.3281 27.0031 17.3281 25.0625V22.25C17.3281 20.3094 18.9031 18.7344 20.8438 18.7344H23.6562C25.5969 18.7344 27.1719 20.3094 27.1719 22.25V25.0625C27.1719 27.0031 25.5969 28.5781 23.6562 28.5781ZM20.8438 20.1406C19.6813 20.1406 18.7344 21.0875 18.7344 22.25V25.0625C18.7344 26.225 19.6813 27.1719 20.8438 27.1719H23.6562C24.8187 27.1719 25.7656 26.225 25.7656 25.0625V22.25C25.7656 21.0875 24.8187 20.1406 23.6562 20.1406H20.8438Z" fill="white"/>
<path d="M22.25 28.5781C21.8656 28.5781 21.5469 28.2594 21.5469 27.875V19.4375C21.5469 19.0531 21.8656 18.7344 22.25 18.7344C22.6344 18.7344 22.9531 19.0531 22.9531 19.4375V27.875C22.9531 28.2594 22.6344 28.5781 22.25 28.5781Z" fill="white"/>
<path d="M26.4688 24.3594H18.0312C17.6469 24.3594 17.3281 24.0406 17.3281 23.6562C17.3281 23.2719 17.6469 22.9531 18.0312 22.9531H26.4688C26.8531 22.9531 27.1719 23.2719 27.1719 23.6562C27.1719 24.0406 26.8531 24.3594 26.4688 24.3594Z" fill="white"/>
</svg>
