<svg width="45" height="45" viewBox="0 0 45 45" fill="none" xmlns="http://www.w3.org/2000/svg">
<rect width="45" height="45" rx="22.5" fill="#BC172F"/>
<path d="M22.25 25.7656C20.3094 25.7656 18.7344 24.1906 18.7344 22.25C18.7344 20.3094 20.3094 18.7344 22.25 18.7344C24.1906 18.7344 25.7656 20.3094 25.7656 22.25C25.7656 24.1906 24.1906 25.7656 22.25 25.7656ZM22.25 20.1406C21.0875 20.1406 20.1406 21.0875 20.1406 22.25C20.1406 23.4125 21.0875 24.3594 22.25 24.3594C23.4125 24.3594 24.3594 23.4125 24.3594 22.25C24.3594 21.0875 23.4125 20.1406 22.25 20.1406Z" fill="white"/>
<path d="M25.2594 31.8034C25.0625 31.8034 24.8656 31.7753 24.6688 31.7284C24.0875 31.569 23.6 31.2034 23.2906 30.6878L23.1781 30.5003C22.625 29.544 21.8656 29.544 21.3125 30.5003L21.2094 30.6784C20.9 31.2034 20.4125 31.5784 19.8313 31.7284C19.2406 31.8878 18.6313 31.8034 18.1156 31.494L16.5031 30.5659C15.9313 30.2378 15.5188 29.7034 15.3406 29.0565C15.1719 28.4096 15.2563 27.744 15.5844 27.1721C15.8563 26.694 15.9313 26.2628 15.7719 25.9909C15.6125 25.719 15.2094 25.5596 14.6563 25.5596C13.2875 25.5596 12.1719 24.444 12.1719 23.0753V21.4253C12.1719 20.0565 13.2875 18.9409 14.6563 18.9409C15.2094 18.9409 15.6125 18.7815 15.7719 18.5096C15.9313 18.2378 15.8656 17.8065 15.5844 17.3284C15.2563 16.7565 15.1719 16.0815 15.3406 15.444C15.5094 14.7971 15.9219 14.2628 16.5031 13.9346L18.125 13.0065C19.1844 12.3784 20.5813 12.744 21.2188 13.8221L21.3313 14.0096C21.8844 14.9659 22.6438 14.9659 23.1969 14.0096L23.3 13.8315C23.9375 12.744 25.3344 12.3784 26.4031 13.0159L28.0156 13.944C28.5875 14.2721 29 14.8065 29.1781 15.4534C29.3469 16.1003 29.2625 16.7659 28.9344 17.3378C28.6625 17.8159 28.5875 18.2471 28.7469 18.519C28.9063 18.7909 29.3094 18.9503 29.8625 18.9503C31.2313 18.9503 32.3469 20.0659 32.3469 21.4346V23.0846C32.3469 24.4534 31.2313 25.569 29.8625 25.569C29.3094 25.569 28.9063 25.7284 28.7469 26.0003C28.5875 26.2721 28.6531 26.7034 28.9344 27.1815C29.2625 27.7534 29.3563 28.4284 29.1781 29.0659C29.0094 29.7128 28.5969 30.2471 28.0156 30.5753L26.3938 31.5034C26.0375 31.7003 25.6531 31.8034 25.2594 31.8034ZM22.25 28.3346C23.0844 28.3346 23.8625 28.8596 24.3969 29.7878L24.5 29.9659C24.6125 30.1628 24.8 30.3034 25.025 30.3596C25.25 30.4159 25.475 30.3878 25.6625 30.2753L27.2844 29.3378C27.5281 29.1971 27.7156 28.9628 27.7906 28.6815C27.8656 28.4003 27.8281 28.1096 27.6875 27.8659C27.1531 26.9471 27.0875 26.0003 27.5 25.2784C27.9125 24.5565 28.7656 24.144 29.8344 24.144C30.4344 24.144 30.9125 23.6659 30.9125 23.0659V21.4159C30.9125 20.8253 30.4344 20.3378 29.8344 20.3378C28.7656 20.3378 27.9125 19.9253 27.5 19.2034C27.0875 18.4815 27.1531 17.5346 27.6875 16.6159C27.8281 16.3721 27.8656 16.0815 27.7906 15.8003C27.7156 15.519 27.5375 15.294 27.2937 15.144L25.6719 14.2159C25.2688 13.9721 24.7344 14.1128 24.4906 14.5253L24.3875 14.7034C23.8531 15.6315 23.075 16.1565 22.2406 16.1565C21.4062 16.1565 20.6281 15.6315 20.0938 14.7034L19.9906 14.5159C19.7563 14.1221 19.2313 13.9815 18.8281 14.2159L17.2063 15.1534C16.9625 15.294 16.775 15.5284 16.7 15.8096C16.625 16.0909 16.6625 16.3815 16.8031 16.6253C17.3375 17.544 17.4031 18.4909 16.9906 19.2128C16.5781 19.9346 15.725 20.3471 14.6563 20.3471C14.0563 20.3471 13.5781 20.8253 13.5781 21.4253V23.0753C13.5781 23.6659 14.0563 24.1534 14.6563 24.1534C15.725 24.1534 16.5781 24.5659 16.9906 25.2878C17.4031 26.0096 17.3375 26.9565 16.8031 27.8753C16.6625 28.119 16.625 28.4096 16.7 28.6909C16.775 28.9721 16.9531 29.1971 17.1969 29.3471L18.8188 30.2753C19.0156 30.3971 19.25 30.4253 19.4656 30.369C19.6906 30.3128 19.8781 30.1628 20 29.9659L20.1031 29.7878C20.6375 28.869 21.4156 28.3346 22.25 28.3346Z" fill="white"/>
</svg>
