<svg width="45" height="45" viewBox="0 0 45 45" fill="none" xmlns="http://www.w3.org/2000/svg">
<rect width="45" height="45" rx="22.5" fill="#BC172F"/>
<path d="M25.0625 32.3281H19.4375C14.3469 32.3281 12.1719 30.1531 12.1719 25.0625V19.4375C12.1719 14.3469 14.3469 12.1719 19.4375 12.1719H25.0625C30.1531 12.1719 32.3281 14.3469 32.3281 19.4375V25.0625C32.3281 30.1531 30.1531 32.3281 25.0625 32.3281ZM19.4375 13.5781C15.1156 13.5781 13.5781 15.1156 13.5781 19.4375V25.0625C13.5781 29.3844 15.1156 30.9219 19.4375 30.9219H25.0625C29.3844 30.9219 30.9219 29.3844 30.9219 25.0625V19.4375C30.9219 15.1156 29.3844 13.5781 25.0625 13.5781H19.4375Z" fill="white"/>
<path d="M19.4375 21.0781C18.0125 21.0781 16.8594 19.925 16.8594 18.5C16.8594 17.075 18.0125 15.9219 19.4375 15.9219C20.8625 15.9219 22.0156 17.075 22.0156 18.5C22.0156 19.925 20.8625 21.0781 19.4375 21.0781ZM19.4375 17.3281C18.7906 17.3281 18.2656 17.8531 18.2656 18.5C18.2656 19.1469 18.7906 19.6719 19.4375 19.6719C20.0844 19.6719 20.6094 19.1469 20.6094 18.5C20.6094 17.8531 20.0844 17.3281 19.4375 17.3281Z" fill="white"/>
<path d="M13.5049 29.4672C13.2799 29.4672 13.0549 29.3547 12.9237 29.1578C12.7081 28.8391 12.7924 28.3984 13.1206 28.1828L17.7424 25.0797C18.7549 24.3953 20.1518 24.4797 21.0706 25.2578L21.3799 25.5297C21.8487 25.9328 22.6456 25.9328 23.1049 25.5297L27.0049 22.1828C27.9987 21.3297 29.5643 21.3297 30.5674 22.1828L32.0956 23.4953C32.3862 23.7484 32.4237 24.1891 32.1706 24.4891C31.9174 24.7797 31.4768 24.8172 31.1768 24.5641L29.6487 23.2516C29.1799 22.8484 28.3831 22.8484 27.9143 23.2516L24.0143 26.5984C23.0206 27.4516 21.4549 27.4516 20.4518 26.5984L20.1424 26.3266C19.7112 25.9609 18.9987 25.9234 18.5206 26.2516L13.8987 29.3547C13.7768 29.4297 13.6362 29.4672 13.5049 29.4672Z" fill="white"/>
</svg>
