<svg width="45" height="45" viewBox="0 0 45 45" fill="none" xmlns="http://www.w3.org/2000/svg">
<rect width="45" height="45" rx="22.5" fill="#BC172F"/>
<path d="M22.25 31.6983C21.9688 31.6983 21.6875 31.6327 21.4531 31.5015C19.7 30.5452 16.6156 29.5327 14.6844 29.2796L14.4125 29.2421C13.1844 29.0921 12.1719 27.939 12.1719 26.6921V15.3671C12.1719 14.6265 12.4625 13.9515 12.9969 13.464C13.5313 12.9765 14.225 12.7421 14.9562 12.8077C17.0187 12.9671 20.1312 13.9983 21.8938 15.1046L22.1187 15.2358C22.1844 15.2733 22.325 15.2733 22.3813 15.2452L22.5312 15.1515C24.2937 14.0452 27.4062 12.9952 29.4781 12.8171C29.4969 12.8171 29.5719 12.8171 29.5906 12.8171C30.275 12.7515 30.9781 12.9952 31.5031 13.4827C32.0375 13.9702 32.3281 14.6452 32.3281 15.3858V26.7015C32.3281 27.9577 31.3156 29.1015 30.0781 29.2515L29.7688 29.289C27.8375 29.5421 24.7437 30.564 23.0281 31.5108C22.8031 31.6421 22.5312 31.6983 22.25 31.6983ZM14.7313 14.2046C14.4313 14.2046 14.1594 14.3077 13.9438 14.5046C13.7094 14.7202 13.5781 15.0296 13.5781 15.3671V26.6921C13.5781 27.2452 14.0562 27.7796 14.5906 27.8546L14.8719 27.8921C16.9813 28.1733 20.2156 29.2327 22.0906 30.2546C22.175 30.2921 22.2969 30.3015 22.3438 30.2827C24.2188 29.2421 27.4719 28.1733 29.5906 27.8921L29.9094 27.8546C30.4438 27.789 30.9219 27.2452 30.9219 26.6921V15.3765C30.9219 15.0296 30.7906 14.7296 30.5563 14.5046C30.3125 14.289 30.0031 14.1858 29.6562 14.2046C29.6375 14.2046 29.5625 14.2046 29.5438 14.2046C27.7531 14.364 24.8656 15.3296 23.2906 16.314L23.1406 16.4171C22.625 16.7358 21.8938 16.7358 21.3969 16.4265L21.1719 16.2952C19.5688 15.3108 16.6813 14.3546 14.8438 14.2046C14.8062 14.2046 14.7687 14.2046 14.7313 14.2046Z" fill="white"/>
<path d="M22.25 30.9141C21.8656 30.9141 21.5469 30.5953 21.5469 30.2109V16.1484C21.5469 15.7641 21.8656 15.4453 22.25 15.4453C22.6344 15.4453 22.9531 15.7641 22.9531 16.1484V30.2109C22.9531 30.6047 22.6344 30.9141 22.25 30.9141Z" fill="white"/>
<path d="M18.2656 19.6641H16.1562C15.7719 19.6641 15.4531 19.3453 15.4531 18.9609C15.4531 18.5766 15.7719 18.2578 16.1562 18.2578H18.2656C18.65 18.2578 18.9688 18.5766 18.9688 18.9609C18.9688 19.3453 18.65 19.6641 18.2656 19.6641Z" fill="white"/>
<path d="M18.9688 22.4766H16.1562C15.7719 22.4766 15.4531 22.1578 15.4531 21.7734C15.4531 21.3891 15.7719 21.0703 16.1562 21.0703H18.9688C19.3531 21.0703 19.6719 21.3891 19.6719 21.7734C19.6719 22.1578 19.3531 22.4766 18.9688 22.4766Z" fill="white"/>
</svg>
