<svg width="45" height="45" viewBox="0 0 45 45" fill="none" xmlns="http://www.w3.org/2000/svg">
<rect width="45" height="45" rx="22.5" fill="#BC172F"/>
<path d="M31.625 19.6719H12.875C12.4906 19.6719 12.1719 19.3531 12.1719 18.9688C12.1719 18.5844 12.4906 18.2656 12.875 18.2656H31.625C32.0094 18.2656 32.3281 18.5844 32.3281 18.9688C32.3281 19.3531 32.0094 19.6719 31.625 19.6719Z" fill="white"/>
<path d="M18.5 27.1719H16.625C16.2406 27.1719 15.9219 26.8531 15.9219 26.4688C15.9219 26.0844 16.2406 25.7656 16.625 25.7656H18.5C18.8844 25.7656 19.2031 26.0844 19.2031 26.4688C19.2031 26.8531 18.8844 27.1719 18.5 27.1719Z" fill="white"/>
<path d="M24.5938 27.1719H20.8438C20.4594 27.1719 20.1406 26.8531 20.1406 26.4688C20.1406 26.0844 20.4594 25.7656 20.8438 25.7656H24.5938C24.9781 25.7656 25.2969 26.0844 25.2969 26.4688C25.2969 26.8531 24.9781 27.1719 24.5938 27.1719Z" fill="white"/>
<path d="M27.4625 30.9219H17.0375C13.3063 30.9219 12.1719 29.7969 12.1719 26.1031V18.3969C12.1719 14.7031 13.3063 13.5781 17.0375 13.5781H27.4531C31.1844 13.5781 32.3188 14.7031 32.3188 18.3969V26.0938C32.3281 29.7969 31.1938 30.9219 27.4625 30.9219ZM17.0375 14.9844C14.0938 14.9844 13.5781 15.4906 13.5781 18.3969V26.0938C13.5781 29 14.0938 29.5062 17.0375 29.5062H27.4531C30.3969 29.5062 30.9125 29 30.9125 26.0938V18.3969C30.9125 15.4906 30.3969 14.9844 27.4531 14.9844H17.0375Z" fill="white"/>
</svg>
