<svg width="45" height="45" viewBox="0 0 45 45" fill="none" xmlns="http://www.w3.org/2000/svg">
<rect width="45" height="45" rx="22.5" fill="#BC172F"/>
<path d="M26.3566 32.3282H14.0379C13.1472 32.3282 12.3222 31.9157 11.7879 31.1938C11.2441 30.4626 11.0847 29.5438 11.3566 28.6719L15.3035 15.9875C15.6597 14.8062 16.7473 14 17.9848 14H29.516C30.6504 14 31.6723 14.6751 32.1035 15.7251C32.3379 16.2688 32.3847 16.8876 32.2441 17.497L29.0847 30.1813C28.7847 31.4469 27.6597 32.3282 26.3566 32.3282ZM17.9941 15.4156C17.3847 15.4156 16.8316 15.8188 16.6535 16.4094L12.7066 29.0938C12.5754 29.5345 12.6504 29.9938 12.9316 30.3688C13.1941 30.7251 13.6066 30.9313 14.0472 30.9313H26.366C27.0129 30.9313 27.5754 30.4907 27.7254 29.8625L30.8847 17.1688C30.9597 16.8594 30.941 16.5501 30.8191 16.2782C30.5941 15.7438 30.0972 15.4062 29.5254 15.4062H17.9941V15.4156Z" fill="white"/>
<path d="M30.4812 32.329H26C25.6156 32.329 25.2969 32.0103 25.2969 31.6259C25.2969 31.2415 25.6156 30.9228 26 30.9228H30.4812C30.8656 30.9228 31.2219 30.7634 31.4844 30.4822C31.7469 30.2009 31.8781 29.8259 31.85 29.4416L30.9219 16.6728C30.8938 16.2884 31.1844 15.9509 31.5688 15.9228C31.9531 15.904 32.2906 16.1852 32.3187 16.5696L33.2469 29.3384C33.3031 30.1072 33.0313 30.8759 32.5063 31.4384C31.9906 32.0103 31.25 32.329 30.4812 32.329Z" fill="white"/>
<path d="M20.0722 17.6848C20.016 17.6848 19.9597 17.6754 19.9035 17.666C19.5285 17.5723 19.2941 17.1972 19.3879 16.8129L20.3628 12.7629C20.4566 12.3879 20.8316 12.1535 21.216 12.2472C21.591 12.341 21.8254 12.716 21.7316 13.1004L20.7566 17.1505C20.6816 17.4692 20.391 17.6848 20.0722 17.6848Z" fill="white"/>
<path d="M26.3557 17.6944C26.3089 17.6944 26.2526 17.6943 26.2057 17.6756C25.8307 17.5912 25.587 17.2162 25.662 16.8412L26.5432 12.7725C26.6276 12.3881 27.0026 12.1538 27.3776 12.2288C27.7526 12.3038 27.9963 12.6881 27.9213 13.0631L27.0401 17.1319C26.9745 17.4694 26.6839 17.6944 26.3557 17.6944Z" fill="white"/>
<path d="M25.7188 22.9531H18.2188C17.8344 22.9531 17.5156 22.6344 17.5156 22.25C17.5156 21.8656 17.8344 21.5469 18.2188 21.5469H25.7188C26.1031 21.5469 26.4219 21.8656 26.4219 22.25C26.4219 22.6344 26.1031 22.9531 25.7188 22.9531Z" fill="white"/>
<path d="M24.7812 26.7031H17.2812C16.8969 26.7031 16.5781 26.3844 16.5781 26C16.5781 25.6156 16.8969 25.2969 17.2812 25.2969H24.7812C25.1656 25.2969 25.4844 25.6156 25.4844 26C25.4844 26.3844 25.1656 26.7031 24.7812 26.7031Z" fill="white"/>
</svg>
