<svg width="45" height="45" viewBox="0 0 45 45" fill="none" xmlns="http://www.w3.org/2000/svg">
<rect width="45" height="45" rx="22.5" fill="#BC172F"/>
<path d="M26 32.3281H18.5C15.6688 32.3281 14.0469 30.7062 14.0469 27.875V18.7344C14.0469 15.7812 15.5469 14.2812 18.5 14.2812C18.8844 14.2812 19.2031 14.6 19.2031 14.9844C19.2031 15.3594 19.3531 15.7156 19.6156 15.9781C19.8781 16.2406 20.2344 16.3906 20.6094 16.3906H23.8906C24.6687 16.3906 25.2969 15.7625 25.2969 14.9844C25.2969 14.6 25.6156 14.2812 26 14.2812C28.9531 14.2812 30.4531 15.7812 30.4531 18.7344V27.875C30.4531 30.7062 28.8313 32.3281 26 32.3281ZM17.8906 15.7063C16.4094 15.8281 15.4531 16.4937 15.4531 18.7344V27.875C15.4531 29.9563 16.4188 30.9219 18.5 30.9219H26C28.0813 30.9219 29.0469 29.9563 29.0469 27.875V18.7344C29.0469 16.4937 28.0906 15.8375 26.6094 15.7063C26.2906 16.9063 25.1938 17.7969 23.8906 17.7969H20.6094C19.8594 17.7969 19.1563 17.5062 18.6219 16.9719C18.2656 16.6156 18.0219 16.1844 17.8906 15.7063Z" fill="white"/>
<path d="M23.8906 17.7969H20.6094C19.8594 17.7969 19.1563 17.5062 18.6219 16.9719C18.0875 16.4375 17.7969 15.7344 17.7969 14.9844C17.7969 13.4375 19.0625 12.1719 20.6094 12.1719H23.8906C24.6406 12.1719 25.3437 12.4625 25.8781 12.9969C26.4125 13.5313 26.7031 14.2344 26.7031 14.9844C26.7031 16.5312 25.4375 17.7969 23.8906 17.7969ZM20.6094 13.5781C19.8312 13.5781 19.2031 14.2062 19.2031 14.9844C19.2031 15.3594 19.3531 15.7156 19.6156 15.9781C19.8781 16.2406 20.2344 16.3906 20.6094 16.3906H23.8906C24.6687 16.3906 25.2969 15.7625 25.2969 14.9844C25.2969 14.6094 25.1469 14.2531 24.8844 13.9906C24.6219 13.7281 24.2656 13.5781 23.8906 13.5781H20.6094Z" fill="white"/>
<path d="M22.25 23.8906H18.5C18.1156 23.8906 17.7969 23.5719 17.7969 23.1875C17.7969 22.8031 18.1156 22.4844 18.5 22.4844H22.25C22.6344 22.4844 22.9531 22.8031 22.9531 23.1875C22.9531 23.5719 22.6344 23.8906 22.25 23.8906Z" fill="white"/>
<path d="M26 27.6406H18.5C18.1156 27.6406 17.7969 27.3219 17.7969 26.9375C17.7969 26.5531 18.1156 26.2344 18.5 26.2344H26C26.3844 26.2344 26.7031 26.5531 26.7031 26.9375C26.7031 27.3219 26.3844 27.6406 26 27.6406Z" fill="white"/>
</svg>
