<svg width="40" height="40" viewBox="0 0 40 40" fill="none" xmlns="http://www.w3.org/2000/svg">
<path d="M34.9474 1.66797H30.0474C27.9307 1.66797 26.6641 2.93464 26.6641 5.0513V9.9513C26.6641 12.068 27.9307 13.3346 30.0474 13.3346H34.9474C37.0641 13.3346 38.3307 12.068 38.3307 9.9513V5.0513C38.3307 2.93464 37.0641 1.66797 34.9474 1.66797ZM35.3141 7.18464C35.1141 7.38463 34.8474 7.48463 34.5807 7.48463C34.3141 7.48463 34.0474 7.38463 33.8474 7.18464L33.5474 6.88464V10.618C33.5474 11.2013 33.0807 11.668 32.4974 11.668C31.9141 11.668 31.4474 11.2013 31.4474 10.618V6.88464L31.1474 7.18464C30.7474 7.58464 30.0807 7.58464 29.6807 7.18464C29.2807 6.78464 29.2807 6.11797 29.6807 5.71797L31.7641 3.63464C31.8474 3.5513 31.9641 3.48464 32.0807 3.43464C32.1141 3.41797 32.1474 3.41797 32.1807 3.4013C32.2641 3.36797 32.3474 3.3513 32.4474 3.3513C32.4807 3.3513 32.5141 3.3513 32.5474 3.3513C32.6641 3.3513 32.7641 3.36797 32.8807 3.41797C32.8974 3.41797 32.8974 3.41797 32.9141 3.41797C33.0307 3.46797 33.1307 3.53464 33.2141 3.61797C33.2307 3.63464 33.2307 3.63464 33.2474 3.63464L35.3307 5.71797C35.7307 6.11797 35.7307 6.78464 35.3141 7.18464Z" fill="#BC172F"/>
<path d="M14.9979 17.3005C17.1886 17.3005 18.9646 15.5246 18.9646 13.3339C18.9646 11.1431 17.1886 9.36719 14.9979 9.36719C12.8072 9.36719 11.0312 11.1431 11.0312 13.3339C11.0312 15.5246 12.8072 17.3005 14.9979 17.3005Z" fill="#BC172F"/>
<path d="M34.9526 13.332H34.1693V21.0154L33.9526 20.832C32.6526 19.7154 30.5526 19.7154 29.2526 20.832L22.3193 26.782C21.0193 27.8987 18.9193 27.8987 17.6193 26.782L17.0526 26.3154C15.8693 25.282 13.9859 25.182 12.6526 26.082L6.41927 30.2654C6.0526 29.332 5.83594 28.2487 5.83594 26.982V13.0154C5.83594 8.31536 8.31927 5.83203 13.0193 5.83203H26.6693V5.0487C26.6693 4.38203 26.7859 3.81536 27.0526 3.33203H13.0193C6.9526 3.33203 3.33594 6.9487 3.33594 13.0154V26.982C3.33594 28.7987 3.6526 30.382 4.26927 31.7154C5.7026 34.882 8.76927 36.6654 13.0193 36.6654H26.9859C33.0526 36.6654 36.6693 33.0487 36.6693 26.982V12.9487C36.1859 13.2154 35.6193 13.332 34.9526 13.332Z" fill="#BC172F"/>
</svg>
