<svg width="24" height="25" viewBox="0 0 24 25" fill="none" xmlns="http://www.w3.org/2000/svg">
<path d="M14.9 23.25H9.10001C8.21001 23.25 7.07 22.78 6.45 22.15L2.35001 18.05C1.72001 17.42 1.25 16.28 1.25 15.4V9.60001C1.25 8.71001 1.72001 7.57001 2.35001 6.95001L6.45 2.85001C7.08 2.22001 8.22001 1.75 9.10001 1.75H14.9C15.79 1.75 16.93 2.22001 17.55 2.85001L21.65 6.95001C22.28 7.58001 22.75 8.72001 22.75 9.60001V15.4C22.75 16.29 22.28 17.43 21.65 18.05L17.55 22.15C16.92 22.78 15.79 23.25 14.9 23.25ZM9.10001 3.25C8.61001 3.25 7.84999 3.56 7.50999 3.91L3.41 8.01001C3.07 8.36001 2.75 9.11001 2.75 9.60001V15.4C2.75 15.89 3.06 16.65 3.41 16.99L7.50999 21.09C7.85999 21.43 8.61001 21.75 9.10001 21.75H14.9C15.39 21.75 16.15 21.44 16.49 21.09L20.59 16.99C20.93 16.64 21.25 15.89 21.25 15.4V9.60001C21.25 9.11001 20.94 8.35001 20.59 8.01001L16.49 3.91C16.14 3.57 15.39 3.25 14.9 3.25H9.10001Z" fill="white"/>
<path d="M4.93891 20.3308C4.74891 20.3308 4.55891 20.2608 4.40891 20.1108C4.11891 19.8208 4.11891 19.3408 4.40891 19.0508L18.5489 4.91086C18.8389 4.62086 19.3189 4.62086 19.6089 4.91086C19.8989 5.20086 19.8989 5.68086 19.6089 5.97086L5.4689 20.1108C5.3189 20.2608 5.1289 20.3308 4.93891 20.3308Z" fill="white"/>
</svg>
