<svg width="24" height="25" viewBox="0 0 24 25" fill="none" xmlns="http://www.w3.org/2000/svg">
<path d="M17.6601 23.1703C17.1301 23.1703 16.4501 23.0003 15.6001 22.5003L12.6101 20.7303C12.3001 20.5503 11.7001 20.5503 11.4001 20.7303L8.40012 22.5003C6.63012 23.5503 5.59012 23.1303 5.12012 22.7903C4.66012 22.4503 3.94012 21.5803 4.41012 19.5803L5.12012 16.5103C5.20012 16.1903 5.04012 15.6403 4.80012 15.4003L2.32012 12.9203C1.08012 11.6803 1.18012 10.6203 1.35012 10.1003C1.52012 9.58031 2.06012 8.66031 3.78012 8.37031L6.97012 7.84031C7.27012 7.79031 7.70012 7.47031 7.83012 7.20031L9.60012 3.67031C10.4001 2.06031 11.4501 1.82031 12.0001 1.82031C12.5501 1.82031 13.6001 2.06031 14.4001 3.67031L16.1601 7.19031C16.3001 7.46031 16.7301 7.78031 17.0301 7.83031L20.2201 8.36031C21.9501 8.65031 22.4901 9.57031 22.6501 10.0903C22.8101 10.6103 22.9101 11.6703 21.6801 12.9103L19.2001 15.4003C18.9601 15.6403 18.8101 16.1803 18.8801 16.5103L19.5901 19.5803C20.0501 21.5803 19.3401 22.4503 18.8801 22.7903C18.6301 22.9703 18.2301 23.1703 17.6601 23.1703ZM12.0001 19.0903C12.4901 19.0903 12.9801 19.2103 13.3701 19.4403L16.3601 21.2103C17.2301 21.7303 17.7801 21.7303 17.9901 21.5803C18.2001 21.4303 18.3501 20.9003 18.1301 19.9203L17.4201 16.8503C17.2301 16.0203 17.5401 14.9503 18.1401 14.3403L20.6201 11.8603C21.1101 11.3703 21.3301 10.8903 21.2301 10.5603C21.1201 10.2303 20.6601 9.96031 19.9801 9.85031L16.7901 9.32031C16.0201 9.19031 15.1801 8.57031 14.8301 7.87031L13.0701 4.35031C12.7501 3.71031 12.3501 3.33031 12.0001 3.33031C11.6501 3.33031 11.2501 3.71031 10.9401 4.35031L9.17012 7.87031C8.82012 8.57031 7.98012 9.19031 7.21012 9.32031L4.03012 9.85031C3.35012 9.96031 2.89012 10.2303 2.78012 10.5603C2.67012 10.8903 2.90012 11.3803 3.39012 11.8603L5.87012 14.3403C6.47012 14.9403 6.78012 16.0203 6.59012 16.8503L5.88012 19.9203C5.65012 20.9103 5.81012 21.4303 6.02012 21.5803C6.23012 21.7303 6.77012 21.7203 7.65012 21.2103L10.6401 19.4403C11.0201 19.2103 11.5101 19.0903 12.0001 19.0903Z" fill="white"/>
</svg>
