<svg width="24" height="25" viewBox="0 0 24 25" fill="none" xmlns="http://www.w3.org/2000/svg">
<path d="M13 23.25H11C7.7 23.25 5.71 22.59 5.34 19.24C5.28 18.79 5.25 18.25 5.25 17.5V7.5C5.25 6.75 5.28 6.21 5.35 5.73C5.71 2.41 7.7 1.75 11 1.75H13C16.3 1.75 18.29 2.41 18.66 5.76C18.72 6.21 18.75 6.75 18.75 7.5V17.5C18.75 18.25 18.72 18.79 18.65 19.27C18.29 22.59 16.3 23.25 13 23.25ZM11 3.25C7.69 3.25 7.06 3.92 6.84 5.92C6.78 6.35 6.75 6.82 6.75 7.5V17.5C6.75 18.18 6.78 18.65 6.83 19.05C7.05 21.08 7.69 21.75 11 21.75H13C16.31 21.75 16.94 21.08 17.16 19.08C17.22 18.66 17.25 18.18 17.25 17.5V7.5C17.25 6.83 17.22 6.35 17.17 5.95C16.95 3.92 16.31 3.25 13 3.25H11Z" fill="white"/>
<path d="M5.67 19.9201H5.33C2.24 19.9201 1.25 18.9301 1.25 15.8301V9.17008C1.25 6.07008 2.24 5.08008 5.33 5.08008H5.67C5.84 5.08008 5.98 5.08008 6.14 5.09008C6.35 5.10008 6.54 5.20008 6.67 5.37008C6.8 5.54008 6.86 5.74008 6.83 5.95008C6.78 6.35008 6.75 6.82008 6.75 7.50008V17.5001C6.75 18.1801 6.78 18.6501 6.83 19.0501C6.86 19.2601 6.8 19.4701 6.67 19.6301C6.54 19.7901 6.35 19.8901 6.14 19.9101C5.98 19.9201 5.84 19.9201 5.67 19.9201ZM5.27 6.58008C3.08 6.59008 2.75 6.94008 2.75 9.17008V15.8301C2.75 18.0601 3.08 18.4101 5.27 18.4201C5.26 18.1501 5.25 17.8501 5.25 17.5001V7.50008C5.25 7.15008 5.26 6.85008 5.27 6.58008Z" fill="white"/>
<path d="M18.6717 19.9201H18.3317C18.1617 19.9201 18.0217 19.9201 17.8617 19.9101C17.6517 19.9001 17.4617 19.8001 17.3317 19.6301C17.2017 19.4701 17.1417 19.2601 17.1717 19.0501C17.2317 18.6501 17.2517 18.1701 17.2517 17.5001V7.50008C17.2517 6.83008 17.2217 6.35008 17.1717 5.95008C17.1417 5.74008 17.2017 5.53008 17.3317 5.37008C17.4617 5.21008 17.6517 5.11008 17.8617 5.09008C18.0217 5.08008 18.1617 5.08008 18.3317 5.08008H18.6717C21.7617 5.08008 22.7517 6.07008 22.7517 9.17008V15.8301C22.7517 18.9301 21.7617 19.9201 18.6717 19.9201ZM18.7317 6.58008C18.7417 6.85008 18.7517 7.15008 18.7517 7.50008V17.5001C18.7517 17.8501 18.7417 18.1501 18.7317 18.4201C20.9217 18.4101 21.2517 18.0601 21.2517 15.8301V9.17008C21.2517 6.94008 20.9217 6.59008 18.7317 6.58008Z" fill="white"/>
</svg>
