<svg width="24" height="25" viewBox="0 0 24 25" fill="none" xmlns="http://www.w3.org/2000/svg">
<path d="M9.98861 23.2506C9.78861 23.2506 9.62861 23.2106 9.50861 23.1606C9.10861 23.0106 8.42861 22.5206 8.42861 20.9706V14.5206H6.08861C4.74861 14.5206 4.26861 13.8906 4.09861 13.5206C3.92861 13.1406 3.77861 12.3706 4.65861 11.3606L12.2286 2.76062C13.2486 1.60062 14.0786 1.68062 14.4786 1.83062C14.8786 1.98062 15.5586 2.47062 15.5586 4.02062V10.4706H17.8986C19.2386 10.4706 19.7186 11.1006 19.8886 11.4706C20.0586 11.8506 20.2086 12.6206 19.3286 13.6306L11.7586 22.2306C11.0486 23.0406 10.4286 23.2506 9.98861 23.2506ZM13.9286 3.24062C13.8986 3.28062 13.6886 3.38062 13.3586 3.76062L5.78861 12.3606C5.50861 12.6806 5.46861 12.8806 5.46861 12.9206C5.48861 12.9306 5.66861 13.0306 6.08861 13.0306H9.17861C9.58861 13.0306 9.92861 13.3706 9.92861 13.7806V20.9806C9.92861 21.4806 10.0186 21.7006 10.0586 21.7606C10.0886 21.7206 10.2986 21.6206 10.6286 21.2406L18.1986 12.6406C18.4786 12.3206 18.5186 12.1206 18.5186 12.0806C18.4986 12.0706 18.3186 11.9706 17.8986 11.9706H14.8086C14.3986 11.9706 14.0586 11.6306 14.0586 11.2206V4.02062C14.0686 3.52062 13.9686 3.31062 13.9286 3.24062Z" fill="white"/>
</svg>
