<svg width="16" height="16" viewBox="0 0 16 16" fill="none" xmlns="http://www.w3.org/2000/svg">
<path d="M8.61464 1.50656L12.9546 3.84656C13.4613 4.1199 13.4613 4.8999 12.9546 5.17323L8.61464 7.51323C8.22797 7.7199 7.77464 7.7199 7.38797 7.51323L3.04797 5.17323C2.5413 4.8999 2.5413 4.1199 3.04797 3.84656L7.38797 1.50656C7.77464 1.2999 8.22797 1.2999 8.61464 1.50656Z" stroke="#292D32" stroke-width="1.5" stroke-linecap="round" stroke-linejoin="round"/>
<path d="M2.40536 6.75182L6.4387 8.77182C6.9387 9.02515 7.2587 9.53849 7.2587 10.0985V13.9118C7.2587 14.4652 6.6787 14.8185 6.18536 14.5718L2.15203 12.5518C1.65203 12.2985 1.33203 11.7852 1.33203 11.2252V7.41182C1.33203 6.85849 1.91203 6.50515 2.40536 6.75182Z" stroke="#292D32" stroke-width="1.5" stroke-linecap="round" stroke-linejoin="round"/>
<path d="M13.5916 6.75182L9.55828 8.77182C9.05828 9.02515 8.73828 9.53849 8.73828 10.0985V13.9118C8.73828 14.4652 9.31828 14.8185 9.81162 14.5718L13.8449 12.5518C14.3449 12.2985 14.6649 11.7852 14.6649 11.2252V7.41182C14.6649 6.85849 14.0849 6.50515 13.5916 6.75182Z" stroke="#292D32" stroke-width="1.5" stroke-linecap="round" stroke-linejoin="round"/>
</svg>
