<svg width="278" height="134" viewBox="0 0 278 134" fill="none" xmlns="http://www.w3.org/2000/svg">
<g clip-path="url(#clip0_1539_10478)">
<path d="M202.894 114.956C202.894 125.475 157.512 134.002 101.533 134.002C45.5542 134.002 0.171875 125.475 0.171875 114.956C0.171875 104.437 45.5542 95.9102 101.533 95.9102C157.512 95.9102 202.894 104.437 202.894 114.956Z" fill="#E6475E"/>
<path d="M150.638 21.6251C144.258 21.633 137.949 22.9527 132.101 25.5022L120.903 30.4451C113.18 33.2936 106.516 38.4412 101.809 45.1941C97.1017 51.9471 94.5781 59.9807 94.5781 68.2123C94.5781 76.4438 97.1017 84.4774 101.809 91.2304C106.516 97.9833 113.18 103.131 120.903 105.979L132.101 110.922C138.452 113.689 145.34 115.005 152.263 114.773C159.187 114.542 165.971 112.77 172.123 109.586C178.275 106.401 183.64 101.885 187.826 96.3659C192.012 90.8467 194.915 84.4634 196.323 77.6808C197.731 70.8981 197.609 63.8869 195.965 57.1575C194.321 50.4281 191.197 44.15 186.821 38.7802C182.445 33.4105 176.926 29.0843 170.666 26.1166C164.407 23.149 157.565 21.6145 150.638 21.6251Z" fill="white" stroke="#263238" stroke-width="1.54467" stroke-linecap="round" stroke-linejoin="round"/>
<path d="M150.638 21.6251C144.258 21.633 137.949 22.9527 132.101 25.5022L120.903 30.4451C113.18 33.2936 106.516 38.4412 101.809 45.1941C97.1017 51.9471 94.5781 59.9807 94.5781 68.2123C94.5781 76.4438 97.1017 84.4774 101.809 91.2304C106.516 97.9833 113.18 103.131 120.903 105.979L132.101 110.922C138.452 113.689 145.34 115.005 152.263 114.773C159.187 114.542 165.971 112.77 172.123 109.586C178.275 106.401 183.64 101.885 187.826 96.3659C192.012 90.8467 194.915 84.4634 196.323 77.6808C197.731 70.8981 197.609 63.8869 195.965 57.1575C194.321 50.4281 191.197 44.15 186.821 38.7802C182.445 33.4105 176.926 29.0843 170.666 26.1166C164.407 23.149 157.565 21.6145 150.638 21.6251Z" fill="#D6D6D6" stroke="#263238" stroke-width="1.54467" stroke-linecap="round" stroke-linejoin="round"/>
<path d="M134.128 32.9023H87.7882C78.4354 32.9023 69.4657 36.6177 62.8523 43.2312C56.2388 49.8446 52.5234 58.8143 52.5234 68.1671C52.5234 77.5199 56.2388 86.4897 62.8523 93.1031C69.4657 99.7165 78.4354 103.432 87.7882 103.432H134.128C143.481 103.432 152.451 99.7165 159.064 93.1031C165.678 86.4897 169.393 77.5199 169.393 68.1671C169.393 58.8143 165.678 49.8446 159.064 43.2312C152.451 36.6177 143.481 32.9023 134.128 32.9023Z" fill="white" stroke="#263238" stroke-width="1.54467" stroke-linecap="round" stroke-linejoin="round"/>
<path d="M134.128 32.9023H87.7882C78.4354 32.9023 69.4657 36.6177 62.8523 43.2312C56.2388 49.8446 52.5234 58.8143 52.5234 68.1671C52.5234 77.5199 56.2388 86.4897 62.8523 93.1031C69.4657 99.7165 78.4354 103.432 87.7882 103.432H134.128C143.481 103.432 152.451 99.7165 159.064 93.1031C165.678 86.4897 169.393 77.5199 169.393 68.1671C169.393 58.8143 165.678 49.8446 159.064 43.2312C152.451 36.6177 143.481 32.9023 134.128 32.9023Z" fill="white" stroke="#263238" stroke-width="1.54467" stroke-linecap="round" stroke-linejoin="round"/>
<path d="M121.256 32.9023H110.305C114.94 32.9023 119.529 33.8153 123.812 35.5891C128.094 37.3628 131.985 39.9627 135.262 43.2402C138.54 46.5177 141.14 50.4087 142.914 54.6909C144.687 58.9732 145.6 63.5629 145.6 68.198C145.6 72.8331 144.687 77.4228 142.914 81.7051C141.14 85.9874 138.54 89.8783 135.262 93.1558C131.985 96.4333 128.094 99.0332 123.812 100.807C119.529 102.581 114.94 103.494 110.305 103.494H121.256C130.609 103.494 139.579 99.7783 146.192 93.1649C152.806 86.5515 156.521 77.5817 156.521 68.2289C156.521 58.8761 152.806 49.9064 146.192 43.2929C139.579 36.6795 130.609 32.9641 121.256 32.9641V32.9023Z" fill="white" stroke="#263238" stroke-width="1.54467" stroke-linecap="round" stroke-linejoin="round"/>
<path d="M97.3281 0.773576H65.3998C63.821 0.764114 62.2772 1.23877 60.9763 2.13361C59.6755 3.02844 58.6802 4.30046 58.1245 5.7783L50.6328 25.3184H112.512C112.512 25.3184 102.534 0.773576 97.3281 0.773576Z" fill="white" stroke="#263238" stroke-width="1.54467" stroke-linecap="round" stroke-linejoin="round"/>
<path d="M51.9062 25.3359L31.8256 25.3359V21.2426C31.8256 20.7346 32.0274 20.2474 32.3866 19.8882C32.7458 19.529 33.233 19.3272 33.7409 19.3272L49.9909 19.3272C50.4989 19.3272 50.986 19.529 51.3452 19.8882C51.7045 20.2474 51.9062 20.7346 51.9062 21.2426V25.3359Z" fill="white" stroke="#263238" stroke-width="1.54467" stroke-linecap="round" stroke-linejoin="round"/>
<path d="M86.2529 0.773576H65.3998C63.821 0.764114 62.2772 1.23877 60.9763 2.13361C59.6755 3.02844 58.6802 4.30046 58.1245 5.7783L50.6328 25.3184H101.02L93.5283 5.7783C92.9725 4.30046 91.9772 3.02844 90.6764 2.13361C89.3756 1.23877 87.8317 0.764114 86.2529 0.773576Z" fill="#D6D6D6" stroke="#263238" stroke-width="1.54467" stroke-linecap="round" stroke-linejoin="round"/>
<path d="M24.8862 25.3164H153.804C154.624 25.3164 155.409 25.6419 155.989 26.2213C156.568 26.8006 156.894 27.5864 156.894 28.4057V108.404C156.894 110.043 156.243 111.614 155.084 112.773C153.925 113.932 152.354 114.583 150.715 114.583H27.9755C26.3369 114.583 24.7653 113.932 23.6066 112.773C22.4478 111.614 21.7969 110.043 21.7969 108.404V28.4057C21.7969 27.5864 22.1224 26.8006 22.7017 26.2213C23.2811 25.6419 24.0669 25.3164 24.8862 25.3164Z" fill="white" stroke="#263238" stroke-width="1.54467" stroke-linecap="round" stroke-linejoin="round"/>
<path d="M24.8862 25.3164H130.109C130.928 25.3164 131.714 25.6419 132.294 26.2213C132.873 26.8006 133.198 27.5864 133.198 28.4057V108.404C133.198 110.043 132.547 111.614 131.389 112.773C130.23 113.932 128.658 114.583 127.02 114.583H27.9755C26.3369 114.583 24.7653 113.932 23.6066 112.773C22.4478 111.614 21.7969 110.043 21.7969 108.404V28.4057C21.7969 27.5864 22.1224 26.8006 22.7017 26.2213C23.2811 25.6419 24.0669 25.3164 24.8862 25.3164Z" fill="#D6D6D6" stroke="#263238" stroke-width="1.54467" stroke-linecap="round" stroke-linejoin="round"/>
<path d="M87.6133 44.5039H27.9119C27.0588 44.5039 26.3672 45.1955 26.3672 46.0486V94.5203C26.3672 95.3734 27.0588 96.0649 27.9119 96.0649H87.6133C88.4664 96.0649 89.158 95.3734 89.158 94.5203V46.0486C89.158 45.1955 88.4664 44.5039 87.6133 44.5039Z" fill="#263238" stroke="#263238" stroke-width="1.54467" stroke-linecap="round" stroke-linejoin="round"/>
<path d="M63.3203 53.1211L75.1834 74.8546" stroke="#BFBFBF" stroke-width="1.54467" stroke-linecap="round" stroke-linejoin="round"/>
<path d="M46.0156 63.9961L59.6705 87.923" stroke="#BFBFBF" stroke-width="1.54467" stroke-linecap="round" stroke-linejoin="round"/>
<path d="M39.9609 53.3672L43.4982 59.5768" stroke="#BFBFBF" stroke-width="1.54467" stroke-linecap="round" stroke-linejoin="round"/>
<path d="M84.7113 9.46875H63.9509C63.0978 9.46875 62.4062 10.1603 62.4062 11.0134V22.2895C62.4062 23.1426 63.0978 23.8342 63.9509 23.8342H84.7113C85.5644 23.8342 86.2559 23.1426 86.2559 22.2895V11.0134C86.2559 10.1603 85.5644 9.46875 84.7113 9.46875Z" fill="#263238" stroke="#263238" stroke-width="1.54467" stroke-linecap="round" stroke-linejoin="round"/>
<path d="M96.1305 53.3672H89.1641V60.3336H96.1305V53.3672Z" fill="white" stroke="#263238" stroke-width="1.54467" stroke-linecap="round" stroke-linejoin="round"/>
<path d="M96.1305 61.7109H89.1641V68.6774H96.1305V61.7109Z" fill="white" stroke="#263238" stroke-width="1.54467" stroke-linecap="round" stroke-linejoin="round"/>
<path d="M96.1305 70.0508H89.1641V77.0172H96.1305V70.0508Z" fill="white" stroke="#263238" stroke-width="1.54467" stroke-linecap="round" stroke-linejoin="round"/>
<path d="M96.1305 78.3789H89.1641V85.3454H96.1305V78.3789Z" fill="white" stroke="#263238" stroke-width="1.54467" stroke-linecap="round" stroke-linejoin="round"/>
<path d="M98.4297 69.2157C98.4328 72.1418 99.3032 75.0013 100.931 77.4328C102.559 79.8643 104.871 81.7586 107.575 82.8762C110.28 83.9939 113.255 84.2847 116.124 83.712C118.994 83.1393 121.629 81.7287 123.697 79.6585C125.765 77.5884 127.173 74.9516 127.742 72.0815C128.312 69.2114 128.018 66.2369 126.898 63.5338C125.777 60.8307 123.88 58.5205 121.447 56.8952C119.014 55.2698 116.154 54.4024 113.228 54.4024C111.282 54.4003 109.356 54.7822 107.559 55.5261C105.761 56.27 104.129 57.3613 102.754 58.7375C101.379 60.1136 100.29 61.7476 99.5476 63.5457C98.8055 65.3437 98.4257 67.2706 98.4297 69.2157ZM104.608 69.2157C104.605 67.5165 105.106 65.8545 106.048 64.4401C106.99 63.0257 108.33 61.9225 109.899 61.2701C111.468 60.6177 113.196 60.4454 114.863 60.7751C116.53 61.1047 118.062 61.9214 119.264 63.1219C120.467 64.3224 121.286 65.8527 121.619 67.5191C121.952 69.1855 121.782 70.9131 121.133 72.4833C120.483 74.0535 119.382 75.3958 117.97 76.3402C116.557 77.2845 114.896 77.7886 113.197 77.7886C110.927 77.7805 108.753 76.8741 107.149 75.2677C105.546 73.6613 104.643 71.4855 104.639 69.2157H104.608Z" fill="white" stroke="#263238" stroke-width="1.54467" stroke-linecap="round" stroke-linejoin="round"/>
<path d="M118.802 69.2021C118.805 70.2935 118.485 71.3611 117.881 72.27C117.276 73.1789 116.416 73.8881 115.409 74.3078C114.402 74.7276 113.292 74.839 112.222 74.628C111.151 74.4169 110.167 73.893 109.394 73.1224C108.621 72.3518 108.095 71.3692 107.881 70.2991C107.667 69.229 107.775 68.1194 108.192 67.1109C108.609 66.1023 109.315 65.2402 110.223 64.6336C111.13 64.0269 112.197 63.7031 113.288 63.7031C114.748 63.7031 116.148 64.282 117.182 65.3128C118.215 66.3436 118.798 67.7423 118.802 69.2021Z" fill="#263238" stroke="#263238" stroke-width="1.54467" stroke-linecap="round" stroke-linejoin="round"/>
<path d="M94.8016 33.3344C94.8016 33.7621 94.6748 34.1802 94.4372 34.5359C94.1996 34.8915 93.8618 35.1687 93.4667 35.3323C93.0715 35.496 92.6367 35.5388 92.2172 35.4554C91.7977 35.372 91.4124 35.166 91.11 34.8636C90.8075 34.5611 90.6016 34.1758 90.5181 33.7563C90.4347 33.3368 90.4775 32.902 90.6412 32.5068C90.8049 32.1117 91.082 31.774 91.4377 31.5363C91.7933 31.2987 92.2114 31.1719 92.6391 31.1719C93.2126 31.1719 93.7627 31.3997 94.1682 31.8053C94.5738 32.2108 94.8016 32.7609 94.8016 33.3344Z" fill="#47E674" stroke="#263238" stroke-width="1.54467" stroke-linecap="round" stroke-linejoin="round"/>
<path d="M148.336 50.6367C166.609 54.0813 165.034 90.7981 180.774 103.665C212.949 129.925 273.609 104.577 252.786 88.5274C236.506 76.0002 234.961 69.4199 237.927 65.4655C239.564 63.3339 242.561 62.4689 245.264 61.8201C255.088 59.4877 266.889 58.8698 277.053 58.6072" stroke="#CCCCCC" stroke-width="1.54467" stroke-linecap="round" stroke-linejoin="round"/>
<path d="M148.845 55.1328H145.57V47.6103H148.845C149.254 47.6103 149.647 47.773 149.937 48.0627C150.227 48.3524 150.389 48.7453 150.389 49.1549V53.5264C150.398 53.7343 150.364 53.9419 150.29 54.1365C150.216 54.3311 150.104 54.5087 149.959 54.6588C149.815 54.8088 149.642 54.9281 149.45 55.0096C149.259 55.0911 149.053 55.133 148.845 55.1328Z" fill="#263238" stroke="#263238" stroke-width="1.54467" stroke-linecap="round" stroke-linejoin="round"/>
</g>
<defs>
<clipPath id="clip0_1539_10478">
<rect width="277.654" height="134" fill="white" transform="translate(0.171875)"/>
</clipPath>
</defs>
</svg>
